<svg xmlns="http://www.w3.org/2000/svg" viewBox="0 0 512 512"><path d="M64.39 172.93c1.48-6.66 2.91-13.33 4.45-20a25.77 25.77 0 0 1 1.88-5.66c1.26-2.51 1-4.3-.75-6.69-5-7-5.75-14.76-1.43-22.19a52.85 52.85 0 0 1 23.74-22.04c6.23-2.86 12.57-3.57 18.36 1.06s7 10.92 5.6 17.88c-2 10.14-6.86 19-13.21 26.93-5.17 6.45-12.42 8.39-20.51 6.94-10.83 22.6-9.32 53.69 7 76.63.39-.84.76-1.55 1.06-2.29 13.32-33.12 44.05-54 79.78-54.11q44.71-.1 89.44.05a10.43 10.43 0 0 0 7.79-2.79c1.17-1.11 2.47-2.11 3.58-3.28 8.82-9.32 19.56-12.37 32-10 .61.12 1.24.12 2.17.2.27-4.39.54-8.73.8-13.06.07-1.25 0-2.5.15-3.74.72-8.12 5-14.21 11.49-15.91 7.56-2 13.4 1.12 18.07 6.88 3.14 3.87 6.11 7.88 9.23 11.78 2.13 2.67 3.85 2.67 6 0 3-3.8 6-7.68 9-11.49 5.13-6.47 11.87-9.1 18.31-7.2 6.6 1.94 10.84 7.92 11.49 16.33.21 2.74.19 5.49.35 8.23s.4 5.2.63 8.17l3.64-.53c10.71-1.5 20.44.66 28.33 8.36 5.54 5.41 11.29 10 19.18 11.59 4 .79 5.85 3.93 5.59 8.15a22.85 22.85 0 0 1-6.39 14.4c-5.82 6.33-13.16 10.2-21.29 12.59-2.25.66-3.12 1.69-3.35 4-1.13 11.53-2.46 23-3.69 34.57a8.06 8.06 0 0 0 .18 2.94c2.3 8.38.33 16.06-3.9 23.31-5.56 9.52-13.33 17-21.88 23.84a6.35 6.35 0 0 0-2.38 4.22c-.21 16-8.27 26.75-22.15 33.59a5.53 5.53 0 0 0-3.56 5.3c-1.18 15-2.67 30.06-3.89 45.1a10.37 10.37 0 0 0 1.17 5.2c1.43 2.9 3.44 5.5 4.92 8.37 5 9.7-.26 18.89-11.13 19.21-8.35.25-16.72.18-25.07.07-7.58-.1-13.19-5.34-13.82-13-1.32-16-2.49-32.07-3.73-48.11-.3-3.84-.64-7.68-1-11.9h-15.21c-.8 8.64-1.63 17.41-2.43 26.19-.32 3.6-.25 7.27-1 10.79-.9 4.4.23 8 2.75 11.49a32.57 32.57 0 0 1 4.2 7.87c2.88 8.14-1.89 16-10.47 16.44-9.58.52-19.21.42-28.8 0-6.17-.24-11.16-5.87-11.74-12.63-1.33-15.65-2.46-31.33-3.67-47-.12-1.46-.24-2.93-.37-4.56h-31c-.5 5.22-1 10.5-1.52 15.78-.36 4-.28 8-1.07 11.91a14.94 14.94 0 0 0 2.94 12.55 28.86 28.86 0 0 1 4 7.56c2.81 8.17-2 15.92-10.62 16.36-9.45.48-19 .37-28.43.06-6.08-.2-11.21-5.39-11.88-12-1.21-11.9-2-23.85-2.91-35.79-.43-5.44-.86-10.88-1.29-16.44h-18.64q-.84 9.64-1.68 19.25a14.45 14.45 0 0 1-.1 1.87c-1.93 8.72.05 16.21 5 23.85 6.12 9.43.13 19.12-11.2 19.4-8.11.2-16.22.14-24.33.05-7.78-.07-13.65-5.25-14.23-13-3.71-49.92-8.41-99.73-8.24-149.83a11.9 11.9 0 0 1 .07-3c2.34-8.45-1.12-15-5.8-21.86A84.82 84.82 0 0 1 65 191.51a11.62 11.62 0 0 0-.64-2.11ZM311 298.74c-.77 1.4-1.52 2.82-2.32 4.21-4.26 7.46-10.32 12.73-18.64 15.19-15 4.45-33.82-2.43-42.93-15.69-6.44-9.39-6.17-18.92-.08-28.63a35.8 35.8 0 0 0 5.23-13.35c1-6.86.63-13.92.84-20.89.47-15 7.73-23 22.58-24.8 1.43-.17 2.84-.46 4.21-.68-.35-5.06-.38-5-4.46-6.38-13.36-4.64-24.86-11.23-27.25-26.87h-41c0 1.48.05 2.71 0 3.93-.42 7.33-.36 14.73-1.41 22-1.59 11.07-6.89 19.93-17.55 24.81-4.14 1.89-7.47 1.13-8.92-2.13s-.08-6 4.05-7.92c3.89-1.79 7.06-4.35 8.79-8.28 4.57-10.38 4.24-21.29 3.48-32.58-9.46 0-18.55-.25-27.62 0C128.86 182 98.26 211.94 96 251c-.69 12-.13 12.76 11.72 15.43 16.81 3.78 27.54-.5 34.24-15.73 2.57-5.82 7.66-10.62 12-15.5 2.34-2.61 5.82-2.09 7.94.3s1.54 5.29-.6 8.06c-4 5.18-8.29 10.29-11.39 16-7.5 13.84-19.72 20.93-35.35 19.14-6.1-.69-12.11-2.22-19.1-3.55q3.33 54.14 6.66 108.06h23.5c1-12 2-23.66 3-35.33.43-4.92 2.74-6.69 7.71-6.22 2.48.23 5 .34 7.47.34h99.54c5.44 0 7.08 1.61 7.47 7q.77 10.83 1.62 21.64c.32 4.18.72 8.37 1.09 12.66h22.92c.17-1.11.37-2.07.46-3q1.86-20.49 3.71-41c.41-4.44 2.25-6.17 6.75-6.19s8.73.15 13.09.2c16.75.21 33.44-.24 49.57-5.51 7.2-2.35 13.89-5.65 18.7-11.78 2.36-3 4.14-6.33 4.16-10.47-25.34 8.26-33.26 7.38-61.88-6.81Zm-17-65.16a7.93 7.93 0 0 0 1.28-.52c11.86-7.65 25.19-10.48 38.95-11.86a5.59 5.59 0 0 1 6.35 5c.32 2.93-1.62 5.38-4.87 6-1.47.3-3 .4-4.45.6-11.07 1.53-21.9 3.88-31.16 10.61-7.52 5.47-9.21 12.23-5.26 20.67a41.72 41.72 0 0 0 4.64 7.65 78.61 78.61 0 0 0 22.66 20.4c15.83 9.22 32.08 10 48.56 1.83a69.54 69.54 0 0 0 22.55-18.21A57.67 57.67 0 0 0 401 264c3.54-7.4 2.1-13.54-4.22-18.74a33.49 33.49 0 0 0-10.5-6.28 224.83 224.83 0 0 0-23.8-6.07c-4.9-1-7.32-2.77-7-6.53s3.06-5.46 8.19-4.68c5.9.9 11.9 1.72 17.54 3.55 7.25 2.36 14.19 5.69 21.23 8.59.46-3.41 1-7.32 1.51-11.25 1.13-9.14 3-18.24.54-27.47-10.85-41-63.88-56.55-95.4-27.72-11.76 10.76-19.52 23.77-18.5 40.37.56 8.51 2.19 16.98 3.41 25.81Zm-12.12-8c-14 .53-17.51 4.11-17.54 17 0 4.36.09 8.72-.06 13.08-.32 9-2.61 17.4-7.94 24.87-3.81 5.34-3.74 10.18 0 15.54 4.45 6.3 10.73 10 18.14 11.59 12.12 2.65 21.31-2.3 26.19-13.7.9-2.09.64-3.34-.93-5.16-4.85-5.63-9.78-11.3-13.82-17.51a25.7 25.7 0 0 1-3.68-21.12c2.2-8.29-.5-16.28-.41-24.6ZM318 344.83c1 12.74 1.95 25.56 2.92 38.37h23.18c1.27-14.36 2.52-28.42 3.76-42.49Zm-120.4 8.66h-28.08c.68 9.44 1.31 18.61 2.08 27.77.07.79 1.16 2.12 1.8 2.13 7.06.16 14.12.1 21.47.1.92-10.15 1.81-19.92 2.72-30ZM77.16 127.43c0 5 2.61 8.78 6.37 10.24 4 1.55 8.84.81 11-2.93a216.12 216.12 0 0 0 10.33-20.51c1.18-2.59 1.66-6.35-1.3-7.72-2.13-1-5.64-.44-7.94.66-7.34 3.55-12.78 9.4-17.07 16.26a16.17 16.17 0 0 0-1.39 4Zm202.46 69.89c2.59-12.84 8.28-23.53 16.79-33.44-6.28 0-11.19 1.52-15.09 5.34-6.07 5.95-12.38 11.46-21.31 13.88 4.26 8.18 11.48 11.35 19.61 14.22Zm120.17-33.4c8.66 10 14.38 20.86 16.81 33.57 8.07-2.84 15.24-6.18 19.42-14.4-8.87-2.38-15.18-7.92-21.27-13.87-3.9-3.8-8.75-5.39-14.96-5.3ZM203.94 406.61c-2.74-4.48-4.8-7.92-6.95-11.32a1.76 1.76 0 0 0-1.32-.5h-22.94c.18 3.13.28 5.72.5 8.3s1.54 3.65 4.19 3.58c5.6-.14 11.2 0 16.8 0Zm81.57 0c-2.48-4.25-4.08-7.88-6.54-10.77-1-1.17-3.86-.9-5.88-1-2.73-.16-5.47 0-8.21 0h-10.55a73.17 73.17 0 0 0 .88 8.8c.25 1.14 1.68 2.86 2.61 2.89 8.8.13 17.6.04 27.69.04Zm36.25-11.81c.3 3.36.29 6.36 1 9.19a4.51 4.51 0 0 0 3.31 2.53c3.83.33 7.7.13 11.56.13h14.05c.29-.36.57-.73.86-1.1-2.18-3.47-4.34-7-6.58-10.39-.2-.3-.92-.34-1.4-.34-7.46-.06-14.89-.06-22.8-.06Zm-218.29 0c.21 2.94.45 5.4.56 7.87.13 2.73 1.32 4 4.2 4 6.59-.11 13.19 0 19.79 0 1.8 0 3.6-.18 6.5-.34-2.47-4.11-4.46-7.47-6.52-10.78a1.72 1.72 0 0 0-1.26-.65c-7.68-.11-15.35-.1-23.27-.1Zm229.77-252.31c-2.61-3.17-4.91-6.42-7.68-9.21-3.09-3.12-6.66-2.18-7.48 2s-.77 8.45-1.12 12.88Zm45.95 5.63c-.34-4.41-.31-8.55-1.05-12.55-.83-4.46-4.49-5.5-7.68-2.23-2.74 2.81-5 6.08-7.53 9.2Z"/><path d="M177.67 264.8c5.32 2.32 9.1-1.24 13.39-5.34 9.35-8.92 24-7.28 32 3 7.76 9.9 5.48 25.12-5.09 32.38-3.46 2.38-7.65 3.69-11.1 6.09-4.13 2.87-8.67 5.76-11.52 9.73-6.53 9.06-14.52 14.25-25.75 11.72-11.93-2.69-19.8-10.42-22.8-22.28-4.61-18.31 9.92-35.27 30.87-35.3Zm.1 11.22c-10.17 0-16.47 4.19-19.46 11.93-3.09 8 .73 17.31 9.1 21.73 6.18 3.26 12.92 3.54 18.66-5.61 3.85-6.15 9.58-10.37 16.1-13.54a73.1 73.1 0 0 0 9.56-5c5.23-3.6 6.18-11.37 2.33-16.27-4-5.09-11.27-6.1-15.75-1.19-6.11 6.64-12.47 11.15-20.54 7.93ZM361.45 263.16c0-1.5-.06-3 0-4.49a5.19 5.19 0 0 1 5.15-5.38c2.93-.24 5.34 1.36 5.66 4.31a51.6 51.6 0 0 1 0 11.52c-.33 2.94-2.65 4.45-5.69 4.24a5 5 0 0 1-5.08-5c-.17-1.73 0-3.49 0-5.23ZM334.68 263.42c0 1.62.11 3.25 0 4.86-.26 3-2 4.82-5 5.07-3.24.28-5.54-1.4-5.89-4.48a49.67 49.67 0 0 1 0-11.17c.34-2.92 2.66-4.61 5.62-4.42a5.19 5.19 0 0 1 5.25 5.27c.11 1.62.03 3.25.02 4.87ZM330.12 202.48c-1.55 2.7-2.35 5.3-4.09 6.81-2.25 1.94-5 1.05-6.93-1.15s-2-9.06-.06-11.31 4.66-3.21 6.91-1.25c1.81 1.57 2.65 4.27 4.17 6.9ZM367.15 203c.09-6.68 3.89-9.8 8.12-7.62 2.75 1.41 3.13 3.91 3.13 6.63 0 2.9.08 5.81-2.95 7.5a5.41 5.41 0 0 1-8-3.42 16.24 16.24 0 0 1-.3-3.09Z"/></svg>