<svg xmlns="http://www.w3.org/2000/svg" viewBox="0 0 512 512"><path d="M333.8 318.84c-1.48 9.13-2.58 18.05-4.45 26.8-1.28 6.05-.25 11.32 2.08 16.91 6.64 15.85 12.84 31.88 19.2 47.85q4.06 10.22-7 10.24c-18.59 0-37.18-.07-55.77.05-4 0-6.43-1.5-8.05-5.22-7.37-16.9-15-33.7-22.35-50.58a16 16 0 0 1-1.3-6.1c-.14-9.59-.06-19.18-.06-28.89-6.83 1.42-13.38 2.83-19.94 4.15a27.1 27.1 0 0 1-6.65.91c-7.4-.4-13.39 2.75-19.27 6.7-1.94 1.3-2.2 2.39-1.88 4.51.58 3.89 1.45 8 .8 11.74-1.16 6.74-6.93 11.37-13.84 12.37a16.69 16.69 0 0 1-16.19-8c-.82-1.36-1.54-2.79-2.63-4.77-3 6.32-5.72 12.24-12.92 14.36l9.2 18.41c3.39 6.8 6.83 13.58 10.16 20.42 2.85 5.83.33 9.9-6.14 9.92-19 0-37.93 0-56.89.05a7.89 7.89 0 0 1-7.41-4c-7.33-11.88-14.85-23.64-22.12-35.56-5.64-9.24-6.34-19-2.13-29C91.61 344 95 336 98.55 328a7.68 7.68 0 0 0 0-6.7c-5.8-14-11.61-28.09-17.11-42.25-9.6-24.72-5.92-47.15 12.19-66.88a13.06 13.06 0 0 0 .75-1.08 50.13 50.13 0 0 1-15.26-24.74 47.15 47.15 0 0 1-.77-21.13c1.18-6.08 5.8-7.81 10.73-4 13.77 10.52 27.48 21.13 41.26 31.65a8.5 8.5 0 0 0 3.91 1.84c12.14 1.33 24.35 2.09 36.43 3.82 38.88 5.56 77.94 7.26 117.16 6.68 5.53-.08 9.51-1.38 13.26-5.54 6.08-6.75 12.78-12.94 19.49-19.63-1.1-.55-1.9-1-2.73-1.38A27.12 27.12 0 0 1 305 166.55c-2-3.87-4-7.76-5.87-11.69-2.68-5.6-.11-9.64 6.18-9.67 9.85-.05 19.7 0 30.28 0-.88-1.48-1.5-2.59-2.18-3.65-7.72-12-17.58-22-28.66-30.84q-5.4-4.32-10.62-8.88a5.54 5.54 0 0 1-1.65-6.76 5.71 5.71 0 0 1 5.9-3.73c27.38 1.18 50.54 10.92 66.89 33.74 3.87 5.42 6.4 11.79 9.72 17.61.75 1.31 2.1 2.84 3.44 3.16 10 2.35 18 7.6 23 16.52a35.92 35.92 0 0 0 14.14 14.36 103.37 103.37 0 0 1 10.91 7.21c6.91 5.07 10.14 12 9 20.5-1.23 8.77-6.38 14.82-14.86 17.51-2.53.8-2.91 1.95-2.88 4.19.1 8.49.08 17 0 25.45 0 6.44-4.14 8.9-10 6.07-14-6.76-21.58-16.87-25.9-35.2-1.5 1-3.15 1.48-3.85 2.59-8.76 13.78-17.53 27.56-25.94 41.55-2.19 3.64-3.13 8-4.68 12.16 7.56 4.43 10.41 10.92 10.71 19.19.14 3.85 1.71 7.74 3.07 11.44 2.07 5.6-.27 9.4-6.28 9.45-6.82.05-13.67.01-21.07.01Zm-195.34 89.82c-.77-1.68-1.26-2.8-1.8-3.9-5.66-11.37-11.29-22.76-17.08-34.08-1.79-3.52-1.45-6.37 1.38-9.1 1.71-1.64 3.28-3.42 4.82-5.22a95.52 95.52 0 0 0 20.18-40c1.24-5.1 4.41-6.62 9.25-4.74.69.27 1.37.58 2.06.88 27.81 11.9 56.56 15 86 7.8 13.5-3.3 26.55-8.44 39.81-12.73 5.14-1.65 8.34.32 9 5.58 1.29 10.14 2.47 20.3 3.82 30.43.75 5.67.71 11.72 2.8 16.88C305 376 312.11 391.28 319 406.6a4 4 0 0 0 2.94 2c4.85.21 9.71.09 14.93.09-.56-1.54-1-2.82-1.47-4.06-6.1-15.27-12.25-30.51-18.26-45.82a14.07 14.07 0 0 1-.9-6.13c.29-3.59 1.14-7.13 1.7-10.7 1.2-7.6 2.37-15.21 3.53-22.68-5.84-3-6.39-4.95-4.23-10.64a35.93 35.93 0 0 0 2.76-10.44c.4-7.05 2.07-13.28 8.09-17.74-8.94-8.8-16.78-18.12-22-29.12s-9.29-22.43-13.87-33.68c-.7-.64-2.31-.69-3.92-.64-45.89 1.48-91.44-2.52-136.84-8.77-9.37-1.28-18.75-2.57-28.21 0C95.39 216 81 246 92.12 273.64q9.43 23.58 19.1 47.08a9.71 9.71 0 0 1 0 8.23c-4 9.1-7.86 18.31-11.8 27.46a19.22 19.22 0 0 0 1.3 18.61q9.8 15.92 19.87 31.67a4.55 4.55 0 0 0 3.14 1.88c4.68.21 9.42.09 14.73.09Zm198.15-136.21c2-4.6 3.16-8.72 5.31-12.25 9.14-15 18.6-29.83 27.83-44.78a8.36 8.36 0 0 1 8-4.42c11.85.14 23.7.08 35.55 0 5.21 0 8.62-2.4 10-6.79S423 196 418.72 193c-2.16-1.48-4.31-3-6.57-4.31-9-5.16-16.79-11.25-21.52-21-2.7-5.56-8.06-8.85-14.27-9.89-3.66-.61-7.46-.29-11.16-.74-3.3-.41-5.18 1-7 3.57-5.54 7.63-10.52 16-20.3 19.13-.43.14-.76.63-1.11 1q-15.25 15.24-30.43 30.49c-.7.7-1.56 2-1.35 2.74 1.91 6.56 3.29 13.43 6.29 19.48 4.82 9.69 10.57 18.93 16.31 28.12 2.39 3.82 5.76 7.02 9 10.86ZM281 320.92c-3.72 1.25-7 2.45-10.27 3.41-2 .58-2.7 1.54-2.67 3.69.13 9.84 0 19.69.07 29.53a7.43 7.43 0 0 0 .47 2.9c7.07 16.05 14.2 32.07 21.24 47.91h16.82C302 398 298 387.75 293 378c-5.75-11.21-8.29-23-9.32-35.41-.59-7.11-1.77-14.21-2.68-21.67Zm-131.1 20.75c5.8 2.38 6.65 4.05 5.21 10-.2.85-.46 1.68-.64 2.53-.6 2.71-.17 5.1 2.71 6.16s4.76-.44 6-2.94c1.73-3.45 3.5-6.88 5.17-10.35s4.37-5.49 8.18-5.54 6.59 1.95 8.28 5.38l4 8c1.24 2.46 3 4.13 5.95 3.11 3.12-1.08 3.46-3.61 2.79-6.43a77.57 77.57 0 0 1-1.95-8 60.6 60.6 0 0 1-.08-7.83L155.93 326c-1.85 4.77-3.93 10.08-6.08 15.67Zm18.7 67c-6.6-13.19-12.87-25.73-19.15-38.26a2.72 2.72 0 0 0-.64-.92c-4.34-3.54-6.53-8.17-6.72-14.18-3.35 4.08-6.42 7.64-9.25 11.39a3.73 3.73 0 0 0-.1 3.22q9 18.42 18.37 36.68a4.26 4.26 0 0 0 3 2c4.54.18 9.15.06 14.44.06Zm151-302.16c.38 1 .4 1.28.56 1.42a137.85 137.85 0 0 1 28.56 35.64c.37.66 1.2 1.5 1.84 1.52 4 .15 8 .08 12.62.08-9.04-19.55-23.12-32.17-43.6-38.67Zm-202.8 91.14-27.1-20.89c1.27 11.76 6.15 20.3 14.59 26.8 2.21-1.14 4.07-2.16 6-3.07s3.83-1.7 6.49-2.85Zm197.47-40.3c2.2 7 7.35 11.33 13.95 11.75 7.06.44 13.27-3.85 16.92-11.75ZM347 306.74c-.39-4-.71-7.73-1.1-11.43a6.84 6.84 0 0 0-6.61-6.38 6.6 6.6 0 0 0-6.76 5.28c-.62 4.11-.91 8.27-1.35 12.53Zm47.41-83.61c1.72 7.69 5.08 13.79 11.16 18.93v-18.93Z"/><path d="M373.66 167.66a9.71 9.71 0 1 1-9.76 9.74 9.75 9.75 0 0 1 9.76-9.74Z"/></svg>