<svg xmlns="http://www.w3.org/2000/svg" viewBox="0 0 512 512"><path d="M460 207.07c-2.31 6.27-7.38 9.88-12.81 13-5.64 3.27-11.45 3-16.37-1.18-8.66-7.41-18.2-13.25-28.26-18.54-4.42-2.33-7.53-7.14-11.58-11.18-13.55 9.46-25.28 21.79-32 38.09-1.81 4.41-.77 10-1.14 15a40.93 40.93 0 0 1-1 7.92c-2.46 8.94 1 15.67 7.76 21 5.12 4 10.24 8.25 16 11.22 21.08 10.94 30.68 29.35 34.62 51.65.51 2.87 1.34 4.88 3.95 6.73 5.95 4.21 8.28 10.62 8.26 17.74 0 5-4 8.88-9.37 9.06-8.24.26-16.51.31-24.74 0-6.53-.26-10.55-5-10.86-11.53-.41-8.51-.8-17-1.44-25.51-.56-7.41-5-11.87-11.84-13.9-4.83-1.43-9.77-2.5-14.67-3.72-7.06-1.75-14.13-3.48-22.25-5.48-1 4.77-2.5 10-3.07 15.24-.55 5-.06 10.12-.14 15.19-.07 4.36-2.44 6.94-6.07 6.87-3.46-.08-5.44-2.6-5.92-6.73-2-17 2.62-32.76 9.39-47.95 2.56-5.75 7.13-10.58 10.13-16.18 7.33-13.68 10.05-28.45 9.83-43.93a24.16 24.16 0 0 1 2.73-10.61c8.6-17.36 21.63-30.86 37.46-41.74 5.27-3.62 12-2.4 14.76 3.32 3.05 6.36 8 9.62 13.91 12.84 7.41 4 14.12 9.4 21 14.36 3.6 2.59 4.84 2.37 9.91-1.82 2.75-2.28 1.18-4.18 0-6.24-2.1-3.71-4-7.54-6.39-11.06a54.55 54.55 0 0 1-9.5-26.73 11.88 11.88 0 0 0-1.32-3.71 14.61 14.61 0 0 0-1.46-2.38c-6.49-9.1-11.29-18.64-11.7-30.33-.18-5-3.33-9.82-5.27-15.14-7.08 6.18-8.7 17.42-6.26 26.35.35 1.28.84 2.53 1.13 3.83.79 3.6-.91 6.74-4.05 7.62s-6.18-.87-7.41-4.42c-.77-2.23-1.36-4.53-2.34-7.89-12.43 5.13-24.67 9.56-36.36 15.14a197.74 197.74 0 0 0-49.38 33.46c-9.21 8.52-21 11.16-32.54 14.09a121 121 0 0 1-16.12 2.56c-4.49.51-7.21-1.59-7.5-5.19s2-5.88 6.36-6.75c9.1-1.84 18.2-3.69 27.19-5.94a8.44 8.44 0 0 0 4.7-4.19c22.67-46.44 60.74-70.75 110.88-77.91a11.92 11.92 0 0 0 4.7-1.69c4.69-3 9.81-2.46 13.6 1.75 7.43 8.27 10.77 18.12 11.71 29.07.29 3.29 1.77 6.5 2.94 9.66a17.35 17.35 0 0 0 2.5 4.07c5.22 7.12 8.55 14.88 9.22 23.83.2 2.77 1.59 5.59 2.93 8.12 4.38 8.19 9 16.26 13.5 24.38Zm-65.18 148.36h19.93l.68-1c-1.66-1.7-3.06-3.79-5-5a13 13 0 0 1-6.43-9.53 103.73 103.73 0 0 0-2.43-12.13c-3.44-12.17-8.84-23.29-19.82-30.4s-22.48-13.19-31.12-23.11l-13.31 21.66c3.54 1.11 6.9 2.37 10.37 3.21 6.83 1.66 13.77 2.92 20.59 4.67 16.89 4.33 24.34 13.42 25.42 30.77.43 6.88.74 13.78 1.12 20.86Zm-1.51-240.74c-36.91 5.31-70 29-81.63 49.46 1.52-1.08 2.69-1.9 3.85-2.74 20.36-14.8 42.4-26.43 66.47-33.68 7-2.1 11-5 11.37-12.37a5.47 5.47 0 0 0-.06-.67Z"/><path d="M172.64 402c-2.79-5.26-6.72-7.64-11.49-8.38-7.19-1.12-10.84-5.19-12.13-12.25-2.1-11.52-4.57-23-7-34.44-1.32-6.38-.22-12.46 2.17-18.36 3.43-8.52 6.67-17.13 10.54-25.44 2.4-5.14 5.7-9.88 8.81-14.66 5-7.65 9-15.66 11-24.65a36.91 36.91 0 0 0-.22-17.39c-.51-2-.46-4.73.55-6.39.88-1.43 3.69-2.77 5.25-2.41a8 8 0 0 1 5 4.22 39.48 39.48 0 0 1 1.51 22.42c-.57 2.67.26 3.7 2.45 4.87a118.8 118.8 0 0 0 58.73 14c11.9-.19 23.78-2.12 35.66-3.32a16.83 16.83 0 0 0 2.93-.83c-.43-4.5-1-8.72-1.19-13-.14-3.8 2.23-6.37 5.55-6.59s5.6 2.1 6.35 5.81c3 15 6.2 29.93 9.24 44.91a60.81 60.81 0 0 1 1.67 11.39c.18 25.07.13 50.13.16 75.2v5h30.07l.42-.69a56.59 56.59 0 0 0-5.6-2.84c-2.23-.85-4.61-1.26-6.89-2-6-1.92-8.81-5.44-9-11.68-.21-5.59-.14-11.2 0-16.8.09-4.29 2.67-7 6.22-6.81s5.64 2.69 5.7 6.88c.08 5.46 0 10.92 0 16.56 2.88.89 5.68 1.62 8.38 2.63 7.12 2.64 13 6.74 15.6 14.32 2.15 6.25-1.14 12.26-7.62 12.46q-19.33.58-38.7-.08c-6.56-.23-10.47-5.36-10.49-12.31-.05-20.27-.37-40.54.1-60.8.32-14.24-.73-28.14-5.32-41.69-.76-2.26-1.22-4.63-1.85-6.94-.06-.23-.28-.42-.57-.82-36.48 7.87-72 5.7-105.93-11.85-6.06 10.39-12.39 20.48-17.92 31-3.52 6.68-5.67 14.06-8.79 21a25.4 25.4 0 0 0-1.68 16.35q3.3 15.42 6.34 30.9a3.91 3.91 0 0 0 3.54 3.54c9.91 2 16.61 7.85 20.51 17.12 3.06 7.28-.75 14.36-8.6 14.66-11 .43-22.08.21-33.12.06-2.05 0-4.05-1.14-6.12-1.51a15.49 15.49 0 0 0-3.65.13c-3.08.2-6.4 1.25-9.21.47-10-2.79-19.79-6.13-29.62-9.4-7-2.34-10.38-7.8-9.51-15.54 1.66-14.82 3.44-29.64 5.16-44.46.09-.77.1-1.54.19-2.93-4 4.24-7.54 8.18-11.32 11.84a60 60 0 0 1-8 6.53c-3.86 2.61-7.94 2.14-11.57-.51a10.12 10.12 0 0 1-4.21-11.2c1.66-7.23 3.93-14.41 4.78-21.75 1.79-15.51-1.17-30.78-3.36-46.09-2.08-14.62-4.34-29.28-5.05-44-.75-15.59 4.7-29.1 18.45-38.06 11.69-7.62 24.37-8.49 37.52-4.92 2.69.74 4.42.47 6.6-1.57 11.4-10.64 25.21-14.81 40.6-14.53 15.87.3 30.83 5.37 46.15 8.57 8.32 1.73 16.73 3 25.09 4.51.91.17 1.84.28 2.74.52 3.55 1 5.3 3.38 4.74 6.71s-2.92 5.26-6.21 4.84c-8.16-1.05-16.34-2.17-24.4-3.8-13.15-2.67-26.1-6.41-39.33-8.44a65.4 65.4 0 0 0-22.92.68c-17 3.56-28.2 17.17-31.1 35-2.6 16 1.7 30 10.37 43.15C125 276 130.2 283.9 135.22 291.9c4.45 7.11 5.78 14.91 1.77 22.45-7.71 14.48-8 29.1-3.76 44.69 3.55 13.07 5.45 26.59 8.25 39.87.25 1.18 1.75 3 2.71 3 9.26.22 18.53.09 28.45.09Zm-68.89-197.83c-17.18-5.75-39.75 3.63-40.51 28.74-.5 17.07 3.46 33.6 5.93 50.3 2.64 17.86 4.71 35.68 1.24 53.64-.54 2.77-1.29 5.5-2.12 9 22.76-19.56 30.12-43.41 23.94-71.62-2.7-12.34-6.4-24.47-8.68-36.88-2.11-11.52.3-21.47 14.82-24.77a5.14 5.14 0 0 0 2.75-2.41 54.47 54.47 0 0 0 2.63-6Zm21 93.27c-2.86 4.11-5.62 8.29-8.6 12.3s-6.45 7.82-9.28 12a18.35 18.35 0 0 0-3 7.6c-2.22 17.43-4.19 34.89-6.2 52.35-1.15 10-1.13 10 8.34 13.08 6.37 2.05 12.76 4.06 19.73 6.26-1.13-5.67-4-9.17-8.35-11.3-6.54-3.22-8.75-8.32-7.88-15.38 1.31-10.7 2-21.49 3.59-32.14a64.93 64.93 0 0 1 4.57-14.71c2.4-5.87 5.38-11.5 8.13-17.22a12.18 12.18 0 0 0-1.08-12.84Zm-17.81 4.25c5.16-4.37 6.56-7.79 5.06-14.95a92.41 92.41 0 0 0-3.65-13.45c-1.37-3.64-3.62-7-5.22-10Zm16 66.26c-2.15 11-2.15 11 2.32 11.27ZM96.72 226.79c-2.46 4.24-1.75 8.51 0 12.8ZM424.59 168.24a5.43 5.43 0 0 1-5.3 5.33 5.31 5.31 0 1 1 5.3-5.33Z"/></svg>