<svg xmlns="http://www.w3.org/2000/svg" viewBox="0 0 512 512"><path d="M133.34 327.86a92.72 92.72 0 0 1 13.9-29.86c15.58-21.82 36.86-34.38 63.13-39 14-2.49 27.86-5.48 41.78-8.3a17.94 17.94 0 0 0 4.19-1.51c12.94-6.43 25.83-13 38.82-19.3 2.27-1.11 2.91-2.43 2.92-4.87 0-8.22-.07-16.48.7-24.64a40.6 40.6 0 0 1 4-13.12c1.39-2.91.92-4.63-.87-6.9-4.8-6.06-9.54-12.17-14-18.45a103.92 103.92 0 0 1-19.77-60.49c-.14-10.52 5.41-19.42 14.7-23.1 9.91-4 18.9-2 26.56 5.31 4 3.76 7.46 8 11.41 12.26.67-1.54 1.29-3 1.89-4.37 3.95-9.36 12.58-15.35 22.47-15.12 10.64.25 18.27 5.45 22.37 15.26 9.54 22.77 10.71 46.13 4.39 69.94-1.52 5.73-1.46 5.75 3.44 9 7.88 5.26 15.8 10.46 23.63 15.79 14.47 9.82 21.31 26.29 17.91 42.89-3.37 16.43-16.25 28.74-33.56 32.08a13.94 13.94 0 0 0-1.5.55v4.22c-.21 13.71.26 27.47-.82 41.11-1.36 17.34-9 32.17-20.75 45a9.11 9.11 0 0 0-2.28 5.45c-.22 10.59-.35 21.21.05 31.79.11 3.15 1.94 6.28 3.23 9.31.24.57 1.67.82 2.58.88 16.36 1 26.92 14.65 23.89 30.86-.63 3.35-3 5.08-7.18 5.09h-53.51c-5.24 0-10.48-.08-15.71 0a7.45 7.45 0 0 1-6.93-3.55c-7.56-11.43-15.45-22.67-22.65-34.33-2.25-3.65-2.7-8.41-4-12.75-8-.85-11.59 1.58-14 9.79 8.47 3.48 14.41 9.47 15.74 18.75.79 5.51.54 11.19.37 16.79-.09 2.9-2.19 4.63-5.08 5.19a8.33 8.33 0 0 1-1.5.07H167.03c-3.29 0-5.26-1.65-6.76-4.4-5.2-9.51-10.63-18.9-15.63-28.51-1.46-2.8-3.3-3.09-5.94-3.06-18.45.18-32.32-7.7-40.26-24.45-2.43-5.13-3.4-11.2-3.88-16.93-.64-7.68-.2-15.45-.16-23.19 0-5.12 2.16-7.23 7.32-7.25 10.35.05 20.68.07 31.62.07Zm224.66 7.3c.68-.56 1-.72 1.17-1 .68-1 1.34-2.1 1.95-3.18a67.3 67.3 0 0 0 8.8-33.6v-40c0-5.15 2-7.14 7.24-7.35 13.08-.52 23.58-8.44 27.35-20.62A28.83 28.83 0 0 0 393.22 197c-9.6-6.72-19.38-13.18-29.24-19.5a33.56 33.56 0 0 0-23.62-5c-4.65.68-7.18-1-8-5.59-1.06-5.89-2.09-11.78-2.92-17.71-3.05-21.94-12-41-27.85-56.61-4.41-4.33-9.5-5.48-14.31-3.21-5.2 2.47-7.35 6.8-7.22 12.44a93.22 93.22 0 0 0 19.34 55.51c5.27 7 10.6 13.88 15.87 20.83 3.14 4.13 3.22 5.76.45 10.09a35.24 35.24 0 0 0-5.72 19.5c0 7.36-.15 14.72.06 22.08.11 4.13-1.39 6.68-5.17 8.53-14.66 7.16-29.19 14.57-43.81 21.81a24.71 24.71 0 0 1-5.95 2.07c-14.52 3-29 6.07-43.6 8.73-23.64 4.31-42.78 15.78-55.79 36-17.72 27.63-17.52 56.39-3.11 85.32 4.78 9.58 10.39 18.75 15.4 28.21 1.3 2.46 2.8 3.2 5.51 3.19 30.18-.11 60.36-.07 90.55-.07h4v-2.87c.14-10.65-4.21-15.09-14.78-15.09-6.86 0-13.72.06-20.58 0-4.2-.06-6.42-2.32-6.53-6.52a64.25 64.25 0 0 1 .16-7.85c2-21.42-9.41-40.4-29.33-48.49-2.84-1.15-5.71-2.23-8.78-3.43.75-2.09 1.35-3.84 2-5.57s1.42-3.59 2.19-5.54c31.81 10.56 47.52 31.87 46.14 65.18 12.25 1.26 12.25 1.26 16.45-9.9.35-.93.74-1.86 1-2.8a7.11 7.11 0 0 1 5.84-5.09c7.8-1.63 15.57-3.43 23.35-5.17l19.06-4.28c-2.09-10.66-4.08-20.84-6.12-31.23l11.67-2.23c1.84 9.14 3.84 17.87 5.32 26.68 3.18 19 6.77 37.73 20.24 52.81 3 3.31 4.34 8.81 7.84 10.66s8.95.7 13.53.75c6.3.06 12.6 0 18.93 0-.59-7.29-5.18-11.76-11.87-12a47.44 47.44 0 0 1-5.6-.09c-1.53-.23-3.8-.63-4.31-1.66-2.91-5.82-7.38-11.76-7.66-17.83-.95-20.41-.37-40.89-.35-61.35a25 25 0 0 1 .27-2.72H358Zm1.22-173.32a3.17 3.17 0 0 0 .44-.8c.58-2.16 1.16-4.32 1.67-6.5a93.15 93.15 0 0 0-4.44-57.49c-2.33-5.76-6.49-8.82-11.81-8.68-5.94.16-9.7 3.43-11.72 8.82a73 73 0 0 0-3.17 9.54 10.93 10.93 0 0 0 .5 5.59c2.8 8.35 6.26 16.5 8.57 25 2 7.38 2.83 15.09 4.14 22.44ZM106.45 340.41c0 6.5-.28 13 0 19.43.84 15.83 15.42 29 30.66 27.61a99.7 99.7 0 0 1-6.12-47Zm199.82 37.67-16.79 3.78c1.13 3.91 1.44 7.87 3.3 10.89 6.08 9.86 12.7 19.38 19.19 29a4 4 0 0 0 2.46 1.84c4.53.18 9.07.08 14.28.08-2.48-3.73-4.38-6.93-6.61-9.88-7.91-10.46-14.35-21.53-15.28-35-.01-.13-.15-.22-.55-.71Z"/><path d="M369.86 208a12 12 0 1 1-11.93-11.91A12.06 12.06 0 0 1 369.86 208Z"/></svg>