<svg xmlns="http://www.w3.org/2000/svg" viewBox="0 0 512 512"><path d="M370.36 321.37c-1.36 19.36-11.36 31.34-30.24 36.25 0 8.66.62 17.45-.14 26.11-1.25 14.34 1.58 27.42 9.47 39.43 5.44 8.29 2.11 13.63-8.05 12.83a179.88 179.88 0 0 0-18-.05 7.09 7.09 0 0 1-7.18-4.31c-3.56-7.29-7.31-14.49-10.77-21.83a14.93 14.93 0 0 1-1.28-6.1c-.1-16.87-.06-33.74-.06-50.61v-4.27c-7.17 5.75-14.64 8.87-23.16 9a36.27 36.27 0 0 1-23.62-8c-.95-.73-2.8-1.31-3.73-.88-9.65 4.52-18.88 3.83-28-1.86-13 12.81-27.26 14.44-41.9 4.73l-17.6 6.88v3c0 6 .46 12-.09 18-1.5 16.53 1.39 31.81 10.5 46 3.78 5.87.78 10.25-6.17 10.28s-14-.08-21 0a7.12 7.12 0 0 1-7.16-4.36c-3.56-7.28-7.31-14.48-10.77-21.81a15 15 0 0 1-1.26-6.11c-.1-15.87-.06-31.74-.06-47.62v-4.39c-14.73 1.39-26.94-3-35.4-15.19s-8.6-24.9-2.1-38.21c-7.1-4.86-12.39-11.24-14.81-19.57-4.09-14.06-.84-26.42 9.54-36.76a4.56 4.56 0 0 0 1.45-4.84C86.69 227 90 219 97.87 212.52a6.29 6.29 0 0 0 2.17-4.14c.36-17.39 13.17-30.26 30.46-30.54a5.73 5.73 0 0 0 4-1.79c8.67-10.94 21.5-13.27 33.29-5.86.41.26.84.5 1.39.82 7.82-5.55 16.21-6.69 25.28-2.86 4.91-7.12 11.35-11.9 19.88-13.63a30.44 30.44 0 0 1 20.66 3.24c1.12.58 2.94 1 3.93.46a37.86 37.86 0 0 1 23.55-3.81c2.76-11.23 9.4-19.1 20.6-23.19-4.92-11.88-4-23.13 4.47-32.91S307 86 319.66 89.32c4.35-6.61 10.15-11.24 18.08-12.81a25.94 25.94 0 0 1 23.57 6.6c1.72 1.56 2.89 1.94 5.12 1 12.84-5.64 26.78.18 32.05 13.31.71 1.76 1.43 2.45 3.37 2.63 12.58 1.13 21.67 7.43 26.18 19.28 4.58 12 1.79 22.8-7 32.07-.43.45-.82.92-1.32 1.48 7.54 9.3 13.33 19.48 15.19 31.36a61.86 61.86 0 0 1 .71 17.11c-1.71 13.62-10.79 19.66-24.21 16.73-3.63-.8-7.16-2.08-10.77-3.14-.88 3.35-1.92 6.76-2.6 10.23a5 5 0 0 0 1 3.3c11.27 16.3 9 35.53-5.7 49a4.12 4.12 0 0 0-1.3 3.29c5.32 20.24-1.94 34.07-21.67 40.61ZM352.21 173.5c-4.81 8-12 12.28-20.4 14.63-11.24 3.14-22.71 3.29-34.2 1.7-5.44-.75-7.27-6.17-3.48-10.42q26.49-29.62 53.15-59.11c1.82-2 4.3-3.39 6.63-1.91A9.76 9.76 0 0 1 358 124a89.18 89.18 0 0 1 1.43 14.52c.08 2.34 1.1 3.08 3 3.29a12.29 12.29 0 0 0 10.77-4.1c4.37-4.6 7.9-4.16 11.35 1.27.13.22.27.42.41.63a18 18 0 1 0 11.64-27.3c-5.61 1-8.08-1-8.54-6.81-.4-5.07-2.87-8.78-7.6-10.67s-9.05-.83-12.81 2.62c-4.77 4.37-8.14 3.91-11.38-1.58s-8-8.3-14.27-7.83c-6.45.49-10.81 4.09-13.14 10.16-2.11 5.49-4.89 6.55-10.17 4-8.53-4.2-17.7-2.18-23.1 5.1s-4.62 16.63 2 23.56c2.14 2.24 3.58 4.53 2.13 7.68-1.36 2.93-3.84 3.51-6.83 3.5-11.16-.05-18.8 7.69-18.78 18.86 0 6.5-3.24 8.83-9.42 6.67a24 24 0 0 0-23.09 3.3c-3.94 2.81-5.81 2.7-9.69-.4-10.26-8.2-23.8-4.74-28.71 7.33-2.55 6.29-6.05 7.21-11.42 3s-12.21-3.68-16.82 1.41-7.12 5.13-11.78 0c-6.14-6.75-16.37-5.18-20.14 3.09-2.49 5.44-3.81 6.14-9.51 5a18 18 0 0 0-21.03 21.1c1.09 5.61.34 7.08-4.75 9.36-6.91 3.09-9.45 10-6.15 16.81 2.52 5.19 2 7-2.69 10.31-15.83 10.93-14 33.65 3.46 41.92 6 2.85 6.8 6.06 2.82 11.43-7.13 9.61-6.7 21.95 1 30.69s20 10.4 30.4 4.42c4.61-2.65 6.66-2.32 10 1.59 8.66 10 21.81 10.7 31.43 1.63 4-3.77 6.7-3.71 10.55.23 9.33 9.55 23 7.72 29.58-4 3.06-5.46 7.11-6 11.3-1.44 6.25 6.77 14.41 7.35 21.71 1.56 4.08-3.24 6.79-3 10.25 1 11.41 13.19 30.73 11.51 39.58-3.44 3.67-6.2 8.44-6.17 12.12.08 6.06 10.3 17.65 14.71 28.69 10.92s17.61-14.68 15.89-26.6c-.73-5.08 1.47-7.74 6.69-8.06 14.77-.9 22.34-15.88 14.33-28.37-3.05-4.76-2.36-7.6 2.52-10.45 14.66-8.56 17.11-26.13 5.37-38.48-3.21-3.38-3.5-5.25-1.2-9.35a18 18 0 0 0 2.29-12.61c-2-10.07-11-16.08-21.17-14.19-.61.12-1.23.2-1.85.3-6 .94-9.22-2.44-7.54-8.27s.7-10.72-4.92-14.89Zm18.05 10.27c11.09.76 19.66 5.31 25.51 14.59a4.57 4.57 0 0 0 1.94 1.65c4.94 2.06 9.81 4.4 14.92 6 7.93 2.4 11.22-.22 11.44-8.57.38-14.19-4.8-26.34-13.9-37a4.31 4.31 0 0 0-3.43-1.2c-10.6 2-19.76-.62-27.69-7.9a3.16 3.16 0 0 0-2.77-.67 26.15 26.15 0 0 1-17.5 2.77c-.54 2.58-1.17 4.87-1.43 7.19a3.31 3.31 0 0 0 1.15 2.64c7.42 4.73 11.1 11.57 11.76 20.5Zm-59.37-5.07c8.48.06 15.8-.68 22.51-4a19.59 19.59 0 0 0 7.43-6c6-8.94 6.58-19.23 6.71-30.72ZM142.38 351.08v48.53H154V357Zm174 2.5v46H328v-41.89ZM162 423.65c-4.28-11.64-6.6-13.28-15.54-11.21 4.19 11.45 4.82 11.93 15 11.38a4.55 4.55 0 0 0 .54-.17Zm174.34.06c-1.83-3.68-3.42-7-5.2-10.29a3.2 3.2 0 0 0-2.23-1.44c-2.8-.18-5.62-.07-8.88-.07.81 1.73 1.36 2.95 1.95 4.15 4.07 8.27 4.07 8.27 14.31 7.65Z"/><path d="M394.09 171.84a6 6 0 1 1-6-5.91 6 6 0 0 1 6 5.91Z"/></svg>