<svg width="16" height="16" viewBox="0 0 16 16" xmlns="http://www.w3.org/2000/svg"><path d="M8 0a8 8 0 1 1 0 16A8 8 0 0 1 8 0Zm0 1C4.14 1 1 4.14 1 8s3.14 7 7 7 7-3.14 7-7-3.14-7-7-7Zm0 5c.277 0 .5.244.5.545v4.91c0 .301-.223.545-.5.545s-.5-.244-.5-.545v-4.91C7.5 6.244 7.723 6 8 6Zm.355-1.855c.045.05.08.1.105.165.025.06.04.125.04.19s-.015.13-.04.19a.584.584 0 0 1-.105.165.497.497 0 0 1-.545.105.577.577 0 0 1-.165-.105.762.762 0 0 1-.11-.165.502.502 0 0 1 .005-.38.516.516 0 0 1 .105-.165.524.524 0 0 1 .71 0Z" fill="#6B7790" fill-rule="evenodd"/></svg>